PathFileType	4	(X/Y/Z)	 static.trc
DataRate	CameraRate	NumFrames	NumMarkers	Units	OrigDataRate	OrigDataStartFrame	OrigNumFrames
200	200	9	42	m	200	1	400
Frame#	Time	C7			LSH			RSH			MAN			RASI			LASI			HIPR			HIPL			RPSI			LPSI			COX			RTHI1			RTHI2			RTHI3			RTHI4			RLKN			RMKN			RSHA2			RSHA3			RSHA4			RLMAL			RMMAL			RHEEL			RMET5			RMET1			RTOE			LTHI1			LTHI2			LTHI3			LTHI4			LLKN			LMKN			LSHA1			LSHA2			LSHA3			LSHA4			LLMAL			LMMAL			LHEEL			LMET5			LMET1			LTOE			
		X1	Y1	Z1	X2	Y2	Z2	X3	Y3	Z3	X4	Y4	Z4	X5	Y5	Z5	X6	Y6	Z6	X7	Y7	Z7	X8	Y8	Z8	X9	Y9	Z9	X10	Y10	Z10	X11	Y11	Z11	X12	Y12	Z12	X13	Y13	Z13	X14	Y14	Z14	X15	Y15	Z15	X16	Y16	Z16	X17	Y17	Z17	X18	Y18	Z18	X19	Y19	Z19	X20	Y20	Z20	X21	Y21	Z21	X22	Y22	Z22	X23	Y23	Z23	X24	Y24	Z24	X25	Y25	Z25	X26	Y26	Z26	X27	Y27	Z27	X28	Y28	Z28	X29	Y29	Z29	X30	Y30	Z30	X31	Y31	Z31	X32	Y32	Z32	X33	Y33	Z33	X34	Y34	Z34	X35	Y35	Z35	X36	Y36	Z36	X37	Y37	Z37	X38	Y38	Z38	X39	Y39	Z39	X40	Y40	Z40	X41	Y41	Z41	X42	Y42	Z42	
1	0.0050	-0.307247	1.361624	-0.527575	-0.243567	1.300584	-0.705736	-0.237744	1.291049	-0.348690	-0.198078	1.297461	-0.530231	-0.159443	0.905573	-0.444188	-0.160108	0.913313	-0.631148	-0.221607	0.964376	-0.403266	-0.211399	0.965211	-0.665677	-0.313511	0.949183	-0.475001	-0.311129	0.947654	-0.589985	-0.319051	0.957437	-0.533866	-0.291836	0.713623	-0.379037	-0.282448	0.654695	-0.373434	-0.219564	0.662224	-0.359144	-0.220887	0.723558	-0.361882	-0.245876	0.431908	-0.382888	-0.247360	0.419943	-0.483420	-0.350643	0.232857	-0.362712	-0.295355	0.219575	-0.354516	-0.282250	0.260396	-0.355109	-0.337222	0.077633	-0.360176	-0.321687	0.080292	-0.438476	-0.383886	0.049912	-0.397966	-0.221195	0.029737	-0.338785	-0.192798	0.033149	-0.421761	-0.168987	0.027771	-0.411620	-0.260392	0.711919	-0.707517	-0.255819	0.650354	-0.709306	-0.191692	0.648905	-0.697568	-0.189007	0.708485	-0.694880	-0.251512	0.427071	-0.691718	-0.264200	0.419024	-0.591342	-0.340168	0.249637	-0.721242	-0.340921	0.204993	-0.717896	-0.287754	0.203187	-0.706700	-0.278908	0.243120	-0.708822	-0.336221	0.074386	-0.710508	-0.324986	0.081786	-0.632793	-0.383961	0.053452	-0.668980	-0.217278	0.028367	-0.729441	-0.193625	0.035667	-0.652312	-0.165153	0.026530	-0.662490	
2	0.0100	-0.307220	1.361616	-0.527597	-0.243545	1.300551	-0.705726	-0.237760	1.291042	-0.348686	-0.198004	1.297469	-0.530229	-0.159438	0.905586	-0.444160	-0.160082	0.913314	-0.631156	-0.221605	0.964387	-0.403269	-0.211363	0.965207	-0.665680	-0.313505	0.949199	-0.474977	-0.311097	0.947662	-0.589999	-0.319035	0.957451	-0.533879	-0.291834	0.713597	-0.379078	-0.282425	0.654688	-0.373421	-0.219567	0.662194	-0.359146	-0.220900	0.723557	-0.361858	-0.245885	0.431924	-0.382896	-0.247379	0.419931	-0.483411	-0.350652	0.232838	-0.362701	-0.295379	0.219566	-0.354528	-0.282260	0.260407	-0.355104	-0.337137	0.077725	-0.360191	-0.321665	0.080324	-0.438479	-0.383870	0.049893	-0.397978	-0.221175	0.029762	-0.338805	-0.192803	0.033131	-0.421741	-0.168974	0.027775	-0.411626	-0.260405	0.711920	-0.707521	-0.255808	0.650345	-0.709301	-0.191670	0.648910	-0.697594	-0.188989	0.708477	-0.694885	-0.251502	0.427060	-0.691721	-0.264099	0.419085	-0.591422	-0.340184	0.249619	-0.721213	-0.340925	0.204989	-0.717895	-0.287757	0.203213	-0.706702	-0.278925	0.243100	-0.708825	-0.336237	0.074354	-0.710505	-0.324996	0.081824	-0.632769	-0.383957	0.053444	-0.668985	-0.217279	0.028398	-0.729488	-0.193626	0.035669	-0.652336	-0.165155	0.026528	-0.662490	
3	0.0150	-0.307188	1.361624	-0.527619	-0.243521	1.300534	-0.705743	-0.237756	1.291051	-0.348689	-0.197984	1.297456	-0.530241	-0.159409	0.905567	-0.444174	-0.160064	0.913310	-0.631144	-0.221585	0.964397	-0.403266	-0.211341	0.965208	-0.665663	-0.313480	0.949196	-0.474992	-0.311084	0.947669	-0.590004	-0.319002	0.957457	-0.533880	-0.291829	0.713593	-0.379078	-0.282424	0.654713	-0.373442	-0.219566	0.662204	-0.359148	-0.220878	0.723550	-0.361871	-0.245884	0.431940	-0.382886	-0.247401	0.419928	-0.483398	-0.350645	0.232926	-0.362609	-0.295360	0.219576	-0.354548	-0.282224	0.260447	-0.355093	-0.337124	0.077763	-0.360171	-0.321663	0.080338	-0.438482	-0.383862	0.049906	-0.397977	-0.221188	0.029755	-0.338811	-0.192796	0.033138	-0.421751	-0.168988	0.027759	-0.411616	-0.260395	0.711917	-0.707519	-0.255817	0.650365	-0.709300	-0.191675	0.648899	-0.697586	-0.188995	0.708465	-0.694884	-0.251488	0.427060	-0.691727	-0.264129	0.419096	-0.591404	-0.340183	0.249625	-0.721219	-0.340942	0.204984	-0.717883	-0.287763	0.203209	-0.706724	-0.278911	0.243118	-0.708830	-0.336236	0.074351	-0.710519	-0.324981	0.081801	-0.632781	-0.383970	0.053442	-0.668978	-0.217281	0.028400	-0.729487	-0.193630	0.035665	-0.652321	-0.165168	0.026527	-0.662491	
4	0.0200	-0.307167	1.361617	-0.527622	-0.243491	1.300513	-0.705755	-0.237751	1.291050	-0.348698	-0.197971	1.297443	-0.530235	-0.159402	0.905556	-0.444156	-0.160047	0.913288	-0.631148	-0.221367	0.963861	-0.403164	-0.211249	0.965177	-0.665704	-0.312978	0.949066	-0.475459	-0.311001	0.947804	-0.589978	-0.316680	0.956751	-0.533928	-0.291801	0.713608	-0.379083	-0.282433	0.654712	-0.373423	-0.219709	0.662407	-0.359020	-0.220949	0.723654	-0.361839	-0.245908	0.431930	-0.382897	-0.247419	0.419941	-0.483404	-0.350644	0.232920	-0.362601	-0.295210	0.219539	-0.354434	-0.282283	0.260441	-0.355240	-0.337362	0.077830	-0.359733	-0.321655	0.080269	-0.438503	-0.383880	0.049908	-0.397979	-0.221192	0.029747	-0.338800	-0.192798	0.033156	-0.421773	-0.168981	0.027759	-0.411619	-0.260397	0.711919	-0.707519	-0.255802	0.650347	-0.709306	-0.191667	0.648895	-0.697586	-0.188976	0.708459	-0.694892	-0.251490	0.427067	-0.691733	-0.264135	0.419042	-0.591393	-0.340182	0.249618	-0.721219	-0.340930	0.204987	-0.717890	-0.287608	0.203404	-0.706719	-0.278905	0.243115	-0.708948	-0.336236	0.074343	-0.710491	-0.325113	0.082172	-0.632804	-0.383966	0.053442	-0.668982	-0.217284	0.028397	-0.729472	-0.193702	0.035660	-0.652193	-0.165164	0.026520	-0.662494	
5	0.0250	-0.307189	1.361400	-0.527646	-0.243569	1.300343	-0.705778	-0.237901	1.290806	-0.348777	-0.198429	1.296783	-0.530251	-0.159520	0.905524	-0.444205	-0.160106	0.913320	-0.631101	-0.221330	0.963833	-0.403127	-0.211133	0.965220	-0.665745	-0.312934	0.948918	-0.475387	-0.310996	0.947681	-0.589990	-0.316650	0.956841	-0.533993	-0.291743	0.713505	-0.378872	-0.282406	0.654527	-0.373180	-0.219736	0.662218	-0.359151	-0.220990	0.723484	-0.362041	-0.245879	0.431942	-0.382837	-0.247425	0.419959	-0.483403	-0.350675	0.232740	-0.362599	-0.295269	0.219361	-0.354349	-0.282263	0.260340	-0.355136	-0.337273	0.077757	-0.359641	-0.321865	0.079992	-0.438429	-0.383915	0.049724	-0.397978	-0.221082	0.029833	-0.338854	-0.192800	0.033042	-0.421804	-0.169207	0.027349	-0.411653	-0.260430	0.711876	-0.707520	-0.255881	0.650277	-0.709290	-0.191658	0.648908	-0.697567	-0.188998	0.708422	-0.694876	-0.251466	0.427101	-0.691714	-0.263842	0.418835	-0.591440	-0.340159	0.249500	-0.721316	-0.340950	0.204892	-0.717835	-0.287649	0.203430	-0.706690	-0.279024	0.242995	-0.708962	-0.336259	0.074282	-0.710479	-0.325190	0.081888	-0.632723	-0.383992	0.053307	-0.668964	-0.217256	0.028332	-0.729591	-0.193707	0.035609	-0.652193	-0.165190	0.026425	-0.662559	
6	0.0300	-0.307151	1.361533	-0.527696	-0.243400	1.300336	-0.705701	-0.237792	1.290914	-0.348733	-0.198396	1.296760	-0.530257	-0.159516	0.905519	-0.444230	-0.160027	0.913270	-0.631137	-0.221267	0.963833	-0.403156	-0.211139	0.965205	-0.665731	-0.312909	0.948980	-0.475466	-0.310958	0.947760	-0.590019	-0.316638	0.956808	-0.533988	-0.291751	0.713441	-0.379036	-0.282406	0.654560	-0.373353	-0.219727	0.662235	-0.359056	-0.220930	0.723545	-0.361850	-0.245894	0.431955	-0.382811	-0.247455	0.419958	-0.483394	-0.350686	0.232735	-0.362574	-0.295302	0.219368	-0.354331	-0.282269	0.260366	-0.355123	-0.337270	0.077765	-0.359650	-0.321665	0.080247	-0.438474	-0.383929	0.049805	-0.398027	-0.221100	0.029811	-0.338872	-0.192787	0.033114	-0.421756	-0.169049	0.027625	-0.411618	-0.260379	0.711922	-0.707537	-0.255811	0.650374	-0.709291	-0.191660	0.648898	-0.697578	-0.188988	0.708462	-0.694889	-0.251487	0.427057	-0.691700	-0.263777	0.418847	-0.591427	-0.340190	0.249589	-0.721233	-0.340923	0.204968	-0.717832	-0.287661	0.203409	-0.706690	-0.278962	0.243099	-0.708948	-0.336243	0.074319	-0.710482	-0.325062	0.081953	-0.632782	-0.384054	0.053402	-0.668955	-0.217209	0.028377	-0.729574	-0.193720	0.035592	-0.652176	-0.165207	0.026503	-0.662490	
7	0.0350	-0.307121	1.361543	-0.527707	-0.243389	1.300453	-0.705760	-0.237798	1.291061	-0.348796	-0.197916	1.297355	-0.530291	-0.159426	0.905369	-0.444235	-0.159997	0.913269	-0.631143	-0.221241	0.963837	-0.403160	-0.211106	0.965197	-0.665747	-0.312887	0.948998	-0.475468	-0.310940	0.947736	-0.590003	-0.316627	0.956804	-0.533999	-0.291717	0.713433	-0.379080	-0.282390	0.654536	-0.373344	-0.219712	0.662215	-0.359048	-0.220903	0.723537	-0.361849	-0.245858	0.431945	-0.382829	-0.247453	0.419951	-0.483398	-0.350708	0.232684	-0.362587	-0.295309	0.219359	-0.354340	-0.282264	0.260353	-0.355123	-0.337270	0.077741	-0.359664	-0.321630	0.080290	-0.438492	-0.383942	0.049821	-0.398033	-0.221142	0.029722	-0.338724	-0.192790	0.033072	-0.421696	-0.169051	0.027575	-0.411565	-0.260359	0.711945	-0.707540	-0.255817	0.650379	-0.709299	-0.191668	0.648884	-0.697589	-0.188971	0.708466	-0.694897	-0.251473	0.427061	-0.691710	-0.264149	0.419093	-0.591316	-0.340168	0.249595	-0.721224	-0.340912	0.204961	-0.717822	-0.287652	0.203402	-0.706692	-0.278939	0.243103	-0.708961	-0.336254	0.074323	-0.710478	-0.325036	0.081966	-0.632797	-0.384055	0.053399	-0.668958	-0.217304	0.028323	-0.729424	-0.193718	0.035616	-0.652192	-0.165198	0.026512	-0.662501	
8	0.0400	-0.307102	1.361538	-0.527744	-0.243334	1.300440	-0.705785	-0.237784	1.291076	-0.348825	-0.197907	1.297353	-0.530311	-0.159423	0.905344	-0.444238	-0.159986	0.913253	-0.631137	-0.221225	0.963825	-0.403175	-0.211066	0.965192	-0.665739	-0.312882	0.948995	-0.475454	-0.310924	0.947756	-0.590012	-0.316611	0.956806	-0.534010	-0.291713	0.713424	-0.379049	-0.282374	0.654538	-0.373360	-0.219717	0.662187	-0.359062	-0.220898	0.723525	-0.361828	-0.245876	0.431949	-0.382819	-0.247445	0.419960	-0.483400	-0.350696	0.232715	-0.362556	-0.295307	0.219342	-0.354324	-0.282262	0.260354	-0.355115	-0.337264	0.077735	-0.359636	-0.321626	0.080284	-0.438483	-0.383946	0.049816	-0.398027	-0.221158	0.029705	-0.338725	-0.192796	0.033085	-0.421669	-0.169213	0.027324	-0.411479	-0.260336	0.711954	-0.707542	-0.255795	0.650381	-0.709297	-0.191665	0.648869	-0.697582	-0.188963	0.708439	-0.694881	-0.251455	0.427052	-0.691713	-0.264153	0.419093	-0.591311	-0.340177	0.249583	-0.721232	-0.340929	0.204961	-0.717808	-0.287632	0.203413	-0.706686	-0.278938	0.243121	-0.708953	-0.336250	0.074324	-0.710474	-0.325046	0.081946	-0.632770	-0.384062	0.053407	-0.668928	-0.217300	0.028344	-0.729449	-0.193710	0.035613	-0.652187	-0.165194	0.026510	-0.662490	
9	0.0450	-0.307082	1.361535	-0.527764	-0.243293	1.300441	-0.705792	-0.237799	1.291086	-0.348832	-0.197898	1.297346	-0.530316	-0.159392	0.905342	-0.444245	-0.159960	0.913252	-0.631152	-0.221180	0.963843	-0.403183	-0.211052	0.965186	-0.665755	-0.312865	0.948969	-0.475463	-0.310903	0.947754	-0.590008	-0.316577	0.956814	-0.534009	-0.291691	0.713428	-0.379058	-0.282373	0.654536	-0.373384	-0.219711	0.662209	-0.359025	-0.220865	0.723530	-0.361845	-0.245881	0.431945	-0.382795	-0.247451	0.419950	-0.483391	-0.350681	0.232698	-0.362564	-0.295319	0.219334	-0.354333	-0.282281	0.260319	-0.355124	-0.337259	0.077755	-0.359634	-0.321639	0.080273	-0.438474	-0.383941	0.049831	-0.398011	-0.221147	0.029727	-0.338708	-0.192794	0.033111	-0.421701	-0.169052	0.027573	-0.411557	-0.260330	0.711961	-0.707546	-0.255786	0.650387	-0.709308	-0.191650	0.648871	-0.697584	-0.188933	0.708442	-0.694891	-0.251446	0.427051	-0.691714	-0.264135	0.419124	-0.591271	-0.340167	0.249595	-0.721227	-0.340898	0.204957	-0.717825	-0.287647	0.203393	-0.706680	-0.278930	0.243107	-0.708948	-0.336253	0.074329	-0.710468	-0.325053	0.081953	-0.632774	-0.384073	0.053405	-0.668945	-0.217316	0.028345	-0.729421	-0.193712	0.035610	-0.652172	-0.165202	0.026521	-0.662491	
